<?xml version="1.0" encoding="utf-8"?>
<!-- Generator: Adobe Illustrator 18.0.0, SVG Export Plug-In . SVG Version: 6.00 Build 0)  -->
<!DOCTYPE svg PUBLIC "-//W3C//DTD SVG 1.1//EN" "http://www.w3.org/Graphics/SVG/1.1/DTD/svg11.dtd">
<svg version="1.1" id="Layer_1" xmlns="http://www.w3.org/2000/svg" xmlns:xlink="http://www.w3.org/1999/xlink" x="0px" y="0px"
	 viewBox="0 0 64 64" enable-background="new 0 0 64 64" xml:space="preserve">
<g>
	<g>
		<path d="M54,8H43V5c0-2.8-2.2-5-5-5H26c-2.8,0-5,2.2-5,5v3H10c-2.2,0-4,1.8-4,4v8h4.1l2.6,38.4c0.2,3.1,2.8,5.6,6,5.6h26.5
			c3.1,0,5.8-2.5,6-5.6L53.9,20H58v-8C58,9.8,56.2,8,54,8z M21,52.1l-2-26l4-0.2l2,26L21,52.1z M34,52h-4V26h4V52z M37,8H27V6h10V8z
			 M43,52.1l-4-0.2l2-26l4,0.2L43,52.1z"/>
	</g>
</g>
</svg>
