<?xml version="1.0" encoding="utf-8"?>
<!-- Generator: Adobe Illustrator 18.0.0, SVG Export Plug-In . SVG Version: 6.00 Build 0)  -->
<!DOCTYPE svg PUBLIC "-//W3C//DTD SVG 1.1//EN" "http://www.w3.org/Graphics/SVG/1.1/DTD/svg11.dtd">
<svg version="1.1" id="Layer_1" xmlns="http://www.w3.org/2000/svg" xmlns:xlink="http://www.w3.org/1999/xlink" x="0px" y="0px"
	 viewBox="0 0 64 64" enable-background="new 0 0 64 64" xml:space="preserve">
<g>
	<g>
		<path d="M49,10h-9V0L49,10z M35,53l22-22l-6-6L29,47v6H35z M49,44v17.9c0,1.1-1.2,2.1-2.3,2.1H3c-1.1,0-2-0.9-2-2.1V2.1
			C1,0.9,1.9,0,3,0h33v14h13v8L25,46v11h11L49,44z M7,53v4h13v-4 M59,29l4-4l-6-6l-4,4L59,29z"/>
	</g>
</g>
</svg>
